<?xml version="1.0" standalone="no"?>
<!DOCTYPE svg PUBLIC "-//W3C//DTD SVG 20010904//EN"
 "http://www.w3.org/TR/2001/REC-SVG-20010904/DTD/svg10.dtd">
<svg version="1.0" xmlns="http://www.w3.org/2000/svg"
 width="500.000000pt" height="500.000000pt" viewBox="0 0 500.000000 500.000000"
 preserveAspectRatio="xMidYMid meet">

<g transform="translate(0.000000,500.000000) scale(0.100000,-0.100000)"
fill="#000000" stroke="none">
<path d="M2345 4744 c-557 -43 -1065 -280 -1451 -676 -127 -131 -193 -213
-288 -362 -181 -283 -280 -554 -337 -921 -16 -104 -16 -466 0 -570 57 -367
156 -638 337 -921 95 -149 161 -231 288 -362 284 -291 643 -503 1021 -602 221
-58 348 -74 585 -74 237 0 364 16 585 74 378 99 737 311 1021 602 127 131 193
213 288 362 181 283 280 554 337 921 16 104 16 466 0 570 -57 367 -156 638
-337 921 -179 280 -408 509 -688 688 -281 180 -564 284 -913 335 -78 12 -366
21 -448 15z m-505 -934 l0 -60 55 0 55 0 0 60 0 60 60 0 60 0 0 -190 0 -191
-62 3 -62 3 3 63 2 62 -55 0 -56 0 0 -65 0 -65 -65 0 -65 0 0 190 0 190 65 0
65 0 0 -60z m630 -5 l0 -65 -55 0 -55 0 0 -125 0 -125 -65 0 -65 0 0 125 0
125 -55 0 -55 0 0 65 0 65 175 0 175 0 0 -65z m214 5 c21 -33 41 -58 46 -55 4
3 22 30 39 60 l31 55 70 0 70 0 -2 -187 -3 -188 -62 -3 -62 -3 -3 87 -3 87
-38 -56 c-20 -31 -40 -57 -42 -57 -3 0 -23 28 -45 62 l-40 61 0 -91 0 -92 -60
0 -60 0 0 190 0 190 64 0 63 0 37 -60z m436 -65 l0 -125 90 0 91 0 -3 -62 -3
-63 -150 0 -150 0 -3 188 -2 187 65 0 65 0 0 -125z m350 -427 c-1 -7 -5 -58
-10 -113 -26 -281 -31 -344 -45 -505 -8 -96 -19 -224 -25 -285 -5 -60 -15
-159 -20 -220 -6 -60 -17 -189 -25 -285 -8 -96 -19 -222 -25 -280 -5 -58 -13
-144 -16 -193 l-7 -87 -41 -10 c-23 -6 -171 -47 -331 -92 -159 -44 -321 -89
-360 -99 l-70 -18 -355 99 c-195 55 -373 104 -396 110 l-41 10 -7 87 c-3 49
-11 135 -16 193 -6 58 -17 184 -25 280 -18 213 -32 371 -45 510 -6 58 -17 184
-25 280 -14 161 -19 223 -45 505 -5 55 -9 106 -10 113 0 9 200 12 970 12 770
0 970 -3 970 -12z"/>
<path d="M1894 2893 c4 -21 13 -117 21 -213 17 -204 32 -363 41 -437 l6 -53
421 0 420 0 -7 -47 c-3 -26 -9 -86 -12 -133 -3 -47 -7 -95 -10 -107 -4 -22 -8
-24 -206 -82 l-66 -20 -119 33 c-156 43 -163 48 -163 94 0 20 -3 61 -6 90 l-7
52 -119 0 -119 0 6 -67 c4 -38 11 -101 16 -141 5 -40 9 -93 9 -117 0 -51 8
-57 97 -79 32 -8 85 -22 118 -31 119 -33 211 -57 252 -67 37 -8 65 -3 230 42
103 29 211 58 240 66 l52 14 5 53 c3 28 10 113 16 187 6 74 15 182 20 240 5
58 12 140 15 183 l7 77 -435 0 -435 0 -5 23 c-3 12 -8 49 -12 82 -3 33 -8 79
-11 103 l-5 42 465 0 465 0 5 53 c3 28 8 85 11 125 l5 72 -606 0 -606 0 6 -37z"/>
</g>
</svg>
