<?xml version="1.0" standalone="no"?>
<!DOCTYPE svg PUBLIC "-//W3C//DTD SVG 20010904//EN"
 "http://www.w3.org/TR/2001/REC-SVG-20010904/DTD/svg10.dtd">
<svg version="1.0" xmlns="http://www.w3.org/2000/svg"
 width="666.000000pt" height="375.000000pt" viewBox="0 0 666.000000 375.000000"
 preserveAspectRatio="xMidYMid meet">

<g transform="translate(0.000000,375.000000) scale(0.100000,-0.100000)"
fill="#000000" stroke="none">
<path d="M3970 895 c0 -51 -10 -69 -25 -45 -13 20 -72 11 -99 -16 -74 -75 13
-203 105 -154 13 7 19 7 19 0 0 -5 11 -10 25 -10 l25 0 0 140 0 140 -25 0
c-24 0 -25 -3 -25 -55z m-9 -106 c8 -16 8 -28 0 -46 -9 -19 -17 -24 -42 -21
-36 3 -51 30 -38 66 11 30 64 31 80 1z"/>
<path d="M4077 935 c-30 -30 5 -65 40 -40 14 11 16 18 7 31 -15 25 -29 27 -47
9z"/>
<path d="M3280 933 c-31 -12 -60 -47 -60 -73 0 -32 32 -63 82 -79 43 -14 51
-22 42 -45 -7 -19 -64 -22 -82 -4 -9 9 -16 7 -32 -7 -18 -16 -19 -21 -6 -33
19 -20 99 -27 135 -13 29 12 51 47 51 79 -1 28 -25 51 -71 67 -24 9 -46 21
-51 27 -17 29 44 52 70 26 9 -9 16 -7 32 7 18 16 19 21 6 33 -15 15 -91 25
-116 15z"/>
<path d="M2310 800 l0 -130 80 0 80 0 0 30 c0 29 -1 30 -50 30 l-50 0 0 100 0
100 -30 0 -30 0 0 -130z"/>
<path d="M3450 881 c0 -10 -7 -21 -15 -25 -22 -8 -18 -37 5 -43 17 -5 20 -14
20 -64 0 -65 16 -83 68 -77 35 4 43 35 10 40 -20 3 -23 10 -26 51 -3 45 -2 47
22 47 21 0 26 5 26 25 0 20 -5 25 -25 25 -18 0 -25 5 -25 20 0 16 -7 20 -30
20 -23 0 -30 -5 -30 -19z"/>
<path d="M2531 834 c-42 -35 -44 -98 -5 -138 32 -31 96 -36 132 -10 l23 16
-21 15 c-16 11 -25 12 -33 4 -17 -17 -42 -13 -62 9 -18 20 -17 20 55 20 l73 0
-7 33 c-14 73 -97 100 -155 51z m97 -36 c3 -15 -4 -18 -37 -18 -43 0 -50 7
-29 28 18 18 62 11 66 -10z"/>
<path d="M2724 847 c-3 -8 -4 -49 -2 -93 3 -78 3 -79 31 -82 27 -3 27 -2 27
52 0 70 7 86 36 86 22 0 23 -4 26 -67 3 -66 4 -68 31 -71 l27 -3 0 73 c0 87
-16 118 -60 118 -16 0 -36 -7 -44 -16 -15 -14 -16 -14 -16 0 0 20 -48 22 -56
3z"/>
<path d="M2972 844 c-42 -29 -20 -84 41 -99 15 -4 27 -14 27 -22 0 -12 -8 -14
-39 -9 -27 4 -42 2 -50 -8 -16 -20 14 -36 66 -36 50 1 73 19 73 59 0 28 -5 34
-46 51 -48 21 -52 46 -6 37 32 -6 52 1 52 18 0 28 -82 35 -118 9z"/>
<path d="M3600 782 c0 -64 4 -82 18 -95 21 -19 54 -22 83 -7 13 7 19 7 19 0 0
-5 14 -10 30 -10 l30 0 0 95 0 95 -30 0 c-29 0 -29 0 -32 -67 -3 -66 -4 -68
-30 -71 l-28 -3 0 70 0 71 -30 0 -30 0 0 -78z"/>
<path d="M4070 766 l0 -96 30 0 31 0 -3 93 -3 92 -27 3 -28 3 0 -95z"/>
<path d="M4198 839 c-74 -55 -28 -168 69 -169 63 0 98 34 98 95 0 40 -4 50
-30 71 -38 30 -99 32 -137 3z m100 -41 c28 -28 7 -78 -33 -78 -27 0 -45 18
-45 45 0 27 18 45 45 45 12 0 26 -5 33 -12z"/>
</g>
</svg>
