<?xml version="1.0" standalone="no"?>
<!DOCTYPE svg PUBLIC "-//W3C//DTD SVG 20010904//EN"
 "http://www.w3.org/TR/2001/REC-SVG-20010904/DTD/svg10.dtd">
<svg version="1.0" xmlns="http://www.w3.org/2000/svg"
 width="500.000000pt" height="500.000000pt" viewBox="0 0 500.000000 500.000000"
 preserveAspectRatio="xMidYMid meet">

<g transform="translate(0.000000,500.000000) scale(0.100000,-0.100000)"
fill="#000000" stroke="none">
<path d="M2310 4790 c-154 -9 -274 -30 -432 -76 -262 -76 -428 -158 -758 -373
-71 -47 -414 -390 -461 -461 -216 -331 -297 -495 -374 -761 -61 -212 -77 -338
-77 -619 0 -281 16 -407 77 -619 77 -266 158 -430 374 -761 47 -71 390 -414
461 -461 331 -216 495 -296 765 -375 207 -60 335 -76 615 -76 281 0 407 16
619 77 266 77 430 158 761 374 71 47 414 390 461 461 216 331 297 495 374 761
61 212 77 338 77 619 0 281 -16 407 -77 619 -77 266 -158 430 -374 761 -47 71
-390 414 -461 461 -331 216 -495 297 -761 374 -230 67 -510 93 -809 75z m572
-224 c149 -28 300 -76 443 -138 50 -22 102 -43 116 -47 40 -13 79 -36 190
-109 201 -133 376 -291 510 -458 76 -97 211 -300 228 -346 7 -18 26 -62 42
-98 130 -296 189 -566 189 -870 0 -304 -59 -574 -189 -870 -16 -36 -35 -80
-42 -98 -17 -46 -152 -249 -228 -346 -81 -100 -227 -246 -327 -327 -97 -76
-300 -211 -346 -228 -18 -7 -62 -26 -98 -42 -296 -130 -566 -189 -870 -189
-304 0 -574 59 -870 189 -36 16 -80 35 -98 42 -46 17 -249 152 -346 228 -100
81 -246 227 -327 327 -76 97 -211 300 -228 346 -7 18 -26 62 -42 98 -48 110
-106 274 -128 361 -49 199 -56 264 -55 514 0 219 3 252 27 377 30 152 76 301
142 453 23 55 48 115 55 133 18 46 153 250 229 346 81 100 227 246 327 327 96
76 300 211 346 229 18 7 78 32 133 55 157 68 304 113 453 140 189 34 182 33
417 30 177 -2 231 -7 347 -29z"/>
<path d="M2225 3910 c-163 -58 -296 -127 -451 -231 -76 -52 -162 -111 -193
-131 -111 -75 -531 -513 -531 -553 0 -5 -22 -42 -49 -84 -168 -263 -256 -518
-249 -727 l3 -89 34 60 c39 68 237 361 303 447 56 74 224 229 309 284 120 78
216 77 254 -1 22 -47 23 -1221 1 -1264 -20 -37 -59 -53 -133 -52 -47 0 -63 -3
-63 -14 0 -20 108 -124 199 -193 212 -160 489 -266 791 -304 l100 -12 72 79
c40 43 81 90 90 104 9 14 54 66 100 115 l84 89 104 -91 c58 -50 132 -115 164
-145 49 -46 63 -54 78 -46 109 58 430 354 555 511 117 147 218 304 259 403 15
37 11 34 -84 -57 -86 -83 -116 -104 -204 -147 -125 -61 -194 -80 -256 -71 -88
14 -82 -40 -82 734 l0 681 25 53 c41 87 130 232 169 275 41 45 218 269 214
272 -1 2 -63 -16 -137 -40 -87 -28 -200 -77 -325 -139 -194 -97 -274 -152
-393 -268 l-52 -51 -48 20 c-57 24 -139 43 -190 43 l-36 0 24 -24 c39 -39 86
-108 113 -166 l26 -55 0 -640 0 -640 -75 -48 c-121 -78 -180 -101 -266 -105
-104 -5 -167 21 -198 82 -21 43 -21 46 -21 780 0 725 0 737 -19 726 -57 -30
-122 11 -146 92 -20 69 -21 201 -1 257 18 50 86 147 144 206 45 46 106 115
101 114 -2 0 -53 -18 -114 -39z"/>
</g>
</svg>
